# xmcd
#
# Track frame offsets:
# 150
# 6696
# 11656
# 16608
# 21702
# 27201
# 47070
# 51367
# 73341
# 79938
# 85571
# 88781
# 98535
# 104301
# 113278
# 128288
# 133919
# 138409
# 144736
# 151848
# 157705
# 162673
# 169538
# 175699
# 182728
# 187254
# 200923
# 206027
#
# Disc length: 2823 seconds
#
# Revision: 0
# Processed by: cddbd v1.5.1PL2 Copyright (c) Steve Scherf et al.
# Submitted via: Audion 3.0.2 (http://www.panic.com/audion/)
#
DISCID=7c0b051c
DTITLE=SoulSystem - SoulSystem
DYEAR=1900
DGENRE=
TTITLE0=ss1
TTITLE1=ss2
TTITLE2=ss3
TTITLE3=ss4
TTITLE4=ss5
TTITLE5=ss6
TTITLE6=ss7
TTITLE7=ss8
TTITLE8=ss9
TTITLE9=ss10
TTITLE10=ss11
TTITLE11=ss12
TTITLE12=ss13
TTITLE13=ss14
TTITLE14=ss15
TTITLE15=ss16
TTITLE16=ss17
TTITLE17=ss18
TTITLE18=ss19
TTITLE19=ss20
TTITLE20=ss21
TTITLE21=ss22
TTITLE22=ss23
TTITLE23=ss24
TTITLE24=ss25
TTITLE25=ss26
TTITLE26=ss27
TTITLE27=ss28
EXTD=
EXTT0=
EXTT1=
EXTT2=
EXTT3=
EXTT4=
EXTT5=
EXTT6=
EXTT7=
EXTT8=
EXTT9=
EXTT10=
EXTT11=
EXTT12=
EXTT13=
EXTT14=
EXTT15=
EXTT16=
EXTT17=
EXTT18=
EXTT19=
EXTT20=
EXTT21=
EXTT22=
EXTT23=
EXTT24=
EXTT25=
EXTT26=
EXTT27=
PLAYORDER=
